<svg width="17" height="18" viewBox="0 0 17 18" fill="none" xmlns="http://www.w3.org/2000/svg">
<path fill-rule="evenodd" clip-rule="evenodd" d="M5.23856 17.0588H12.1951C14.7504 17.0588 16.7107 16.1359 16.1539 12.4211L15.5055 7.38682C15.1623 5.53327 13.98 4.82389 12.9426 4.82389H4.46053C3.40789 4.82389 2.29424 5.58666 1.8976 7.38682L1.24924 12.4211C0.776316 15.7163 2.68326 17.0588 5.23856 17.0588Z" stroke-width="1.5" stroke-linecap="round" stroke-linejoin="round"/>
<path d="M5.12415 4.64082C5.12415 2.65242 6.73606 1.04051 8.72445 1.04051V1.04051C9.68195 1.03646 10.6016 1.41398 11.2801 2.08961C11.9586 2.76524 12.34 3.68331 12.34 4.64082V4.64082" stroke-width="1.5" stroke-linecap="round" stroke-linejoin="round"/>
<path d="M6.25305 8.39368H6.29118" stroke-opacity="0.5" stroke-width="1.5" stroke-linecap="round" stroke-linejoin="round"/>
<path d="M11.1119 8.39368H11.1501" stroke-opacity="0.5" stroke-width="1.5" stroke-linecap="round" stroke-linejoin="round"/>
</svg>
