<svg width="20" height="21" viewBox="0 0 20 21" fill="none" xmlns="http://www.w3.org/2000/svg">
<path d="M7.63101 17.4517V14.896C7.631 14.246 8.16093 13.7178 8.81751 13.7135H11.2226C11.8823 13.7135 12.4171 14.2429 12.4171 14.896V14.896V17.4596C12.4169 18.0115 12.8619 18.4626 13.4192 18.4755H15.0226C16.6209 18.4755 17.9167 17.1927 17.9167 15.6103V15.6103V8.34035C17.9081 7.71784 17.6129 7.13328 17.115 6.75301L11.6314 2.3799C10.6708 1.61846 9.30517 1.61846 8.34451 2.3799L2.88502 6.76095C2.38522 7.13967 2.08949 7.72521 2.08333 8.34829V15.6103C2.08333 17.1927 3.37906 18.4755 4.97743 18.4755H6.5808C7.15196 18.4755 7.61498 18.0171 7.61498 17.4517V17.4517" stroke-width="1.5" stroke-linecap="round" stroke-linejoin="round"/>
</svg>
