<svg width="20" height="21" viewBox="0 0 20 21" fill="none" xmlns="http://www.w3.org/2000/svg">
<path fill-rule="evenodd" clip-rule="evenodd" d="M17.3389 6.49513L16.8202 5.59505C16.3814 4.83345 15.4089 4.57072 14.6463 5.00771V5.00771C14.2832 5.22157 13.85 5.28224 13.4422 5.17635C13.0344 5.07047 12.6855 4.80671 12.4723 4.44326C12.3352 4.21224 12.2616 3.94911 12.2588 3.68048V3.68048C12.2711 3.2498 12.1087 2.83245 11.8083 2.52351C11.508 2.21456 11.0954 2.04033 10.6646 2.04051H9.61956C9.19745 2.04051 8.79274 2.20871 8.49498 2.5079C8.19722 2.8071 8.03096 3.21261 8.03299 3.63472V3.63472C8.02048 4.50622 7.31038 5.20612 6.43879 5.20603C6.17016 5.20325 5.90703 5.12957 5.67601 4.99246V4.99246C4.91336 4.55546 3.94091 4.81819 3.5021 5.5798L2.94527 6.49513C2.50699 7.25578 2.76615 8.22762 3.52498 8.66904V8.66904C4.01823 8.95382 4.32209 9.48011 4.32209 10.0497C4.32209 10.6192 4.01823 11.1455 3.52498 11.4303V11.4303C2.76711 11.8687 2.50767 12.8382 2.94527 13.5966V13.5966L3.47158 14.5043C3.67719 14.8753 4.02215 15.149 4.43014 15.265C4.83813 15.3809 5.27551 15.3295 5.6455 15.1221V15.1221C6.00921 14.9099 6.44264 14.8518 6.84943 14.9606C7.25622 15.0695 7.60268 15.3363 7.81178 15.7018C7.94889 15.9329 8.02257 16.196 8.02536 16.4646V16.4646C8.02536 17.3451 8.73911 18.0588 9.61956 18.0588H10.6646C11.5421 18.0588 12.2546 17.3497 12.2588 16.4722V16.4722C12.2567 16.0488 12.424 15.6421 12.7234 15.3427C13.0229 15.0433 13.4295 14.876 13.853 14.878C14.121 14.8852 14.383 14.9586 14.6157 15.0916V15.0916C15.3764 15.5299 16.3482 15.2707 16.7897 14.5119V14.5119L17.3389 13.5966C17.5514 13.2317 17.6098 12.7971 17.501 12.3891C17.3922 11.9811 17.1252 11.6332 16.7592 11.4227V11.4227C16.3931 11.2121 16.1261 10.8643 16.0173 10.4562C15.9085 10.0482 15.9669 9.61363 16.1794 9.24875C16.3177 9.0074 16.5178 8.80728 16.7592 8.66904V8.66904C17.5134 8.22786 17.772 7.26169 17.3389 6.50275V6.50275V6.49513Z" stroke-width="1.5" stroke-linecap="round" stroke-linejoin="round"/>
<ellipse cx="10.1459" cy="10.0497" rx="2.1968" ry="2.1968" stroke-width="1.5" stroke-linecap="round" stroke-linejoin="round"/>
</svg>
