<svg width="20" height="21" viewBox="0 0 20 21" fill="none" xmlns="http://www.w3.org/2000/svg">
<path d="M14.6624 9.25205C15.9977 9.25205 17.0809 8.16962 17.0809 6.83434C17.0809 5.49906 15.9977 4.41663 14.6624 4.41663" stroke-width="1.5" stroke-linecap="round" stroke-linejoin="round"/>
<path d="M15.7742 11.8794C16.173 11.9069 16.5695 11.9635 16.9598 12.0513C17.5022 12.1575 18.1545 12.3798 18.3867 12.8664C18.5349 13.1781 18.5349 13.5409 18.3867 13.8533C18.1553 14.3399 17.5022 14.5615 16.9598 14.673" stroke-width="1.5" stroke-linecap="round" stroke-linejoin="round"/>
<path d="M5.24167 9.25205C3.90639 9.25205 2.8232 8.16962 2.8232 6.83434C2.8232 5.49906 3.90639 4.41663 5.24167 4.41663" stroke-width="1.5" stroke-linecap="round" stroke-linejoin="round"/>
<path d="M4.12983 11.8794C3.73108 11.9069 3.33462 11.9635 2.94427 12.0513C2.40191 12.1575 1.74955 12.3798 1.51809 12.8664C1.36913 13.1781 1.36913 13.5409 1.51809 13.8533C1.74879 14.3399 2.40191 14.5615 2.94427 14.673" stroke-width="1.5" stroke-linecap="round" stroke-linejoin="round"/>
<path fill-rule="evenodd" clip-rule="evenodd" d="M9.94815 12.4001C12.6538 12.4001 14.9654 12.8096 14.9654 14.4481C14.9654 16.0859 12.6691 16.5106 9.94815 16.5106C7.24169 16.5106 4.93092 16.1012 4.93092 14.4626C4.93092 12.8241 7.22717 12.4001 9.94815 12.4001Z" stroke-width="1.5" stroke-linecap="round" stroke-linejoin="round"/>
<path fill-rule="evenodd" clip-rule="evenodd" d="M9.94815 10.0629C8.1637 10.0629 6.73294 8.63215 6.73294 6.84694C6.73294 5.0625 8.1637 3.63174 9.94815 3.63174C11.7326 3.63174 13.1634 5.0625 13.1634 6.84694C13.1634 8.63215 11.7326 10.0629 9.94815 10.0629Z" stroke-width="1.5" stroke-linecap="round" stroke-linejoin="round"/>
</svg>
