<svg width="21" height="20" viewBox="0 0 21 20" fill="none" xmlns="http://www.w3.org/2000/svg">
<path d="M16 11C16.5523 11 17 10.5523 17 10C17 9.44772 16.5523 9 16 9V11ZM0.292893 9.29289C-0.0976311 9.68342 -0.0976311 10.3166 0.292893 10.7071L6.65685 17.0711C7.04738 17.4616 7.68054 17.4616 8.07107 17.0711C8.46159 16.6805 8.46159 16.0474 8.07107 15.6569L2.41421 10L8.07107 4.34315C8.46159 3.95262 8.46159 3.31946 8.07107 2.92893C7.68054 2.53841 7.04738 2.53841 6.65685 2.92893L0.292893 9.29289ZM21 1C21 0.447715 20.5523 0 20 0C19.4477 0 19 0.447715 19 1H21ZM19 19C19 19.5523 19.4477 20 20 20C20.5523 20 21 19.5523 21 19H19ZM16 9H1V11H16V9ZM19 1V19H21V1H19Z"/>
</svg>
